<?xml version="1.0" encoding="utf-8"?>
<!-- Generator: Adobe Illustrator 25.0.0, SVG Export Plug-In . SVG Version: 6.00 Build 0)  -->
<svg version="1.1" id="Layer_1" xmlns="http://www.w3.org/2000/svg" xmlns:xlink="http://www.w3.org/1999/xlink" x="0px" y="0px"
	 viewBox="0 0 30 30" style="enable-background:new 0 0 30 30;" xml:space="preserve">
<style type="text/css">
	.st0{fill:#FFFFFF;}
</style>
<g>
	<polygon class="st0" points="16.1,16.1 14,16.1 14,19.8 1.1,19.8 1.1,21.8 14,21.8 14,29 16.1,29 16.1,21.8 28.9,21.8 28.9,19.8 
		16.1,19.8 	"/>
	<polygon class="st0" points="15.8,4.4 15.1,1 13,1.5 13.7,4.4 1.1,4.4 1.1,6.5 28.9,6.5 28.9,4.4 	"/>
	<path class="st0" d="M8.4,7.6c0,0-0.6,3.5-6,8l1.3,1.6c2.1-1.8,3.6-3.4,4.5-4.8c1.8,1.1,3.7,2.3,4,2.9l1.8-1.1
		c-0.7-1.1-3.1-2.7-4.6-3.6c0.9-1.7,1-2.7,1.1-2.8L8.4,7.6z"/>
	<path class="st0" d="M20.7,7.7c0,0-1.6,3.8-4.2,6.3l1.5,1.5c0.9-0.9,1.7-1.9,2.4-2.9c1.1,0.6,4,2.1,5.7,4.1l1.6-1.4
		c-1.9-2.2-4.8-3.8-6.1-4.5c0.7-1.3,1.2-2.3,1.2-2.4L20.7,7.7z"/>
</g>
</svg>
