<?xml version="1.0" encoding="utf-8"?>
<!-- Generator: Adobe Illustrator 25.0.0, SVG Export Plug-In . SVG Version: 6.00 Build 0)  -->
<svg version="1.1" id="Layer_1" xmlns="http://www.w3.org/2000/svg" xmlns:xlink="http://www.w3.org/1999/xlink" x="0px" y="0px"
	 viewBox="0 0 30 30" style="enable-background:new 0 0 30 30;" xml:space="preserve">
<style type="text/css">
	.st0{fill:#FFFFFF;}
</style>
<g>
	<path class="st0" d="M27.5,23.1v-6.8l-9.4,0v-3.2h7.5V11h-7.5V8.2h7.5V6.1h-7.5V4.3h9.3V2.2H5.7v3.9v6.9v5.2l19.7,0.1v4.8l0,0.2
		c0,0,0.1,1.1-0.6,1.7c-0.8,0.8-2.5,0.9-4.8,0.4l-0.4,2c1,0.2,2,0.3,2.9,0.3c1.6,0,2.9-0.4,3.8-1.2C27.6,25.3,27.5,23.5,27.5,23.1z
		 M16,11H7.8V8.2H16V11z M7.8,4.3H16v1.9H7.8V4.3z M7.8,13.1H16v3.2l-8.3,0V13.1z"/>
	<rect x="20.3" y="19.2" transform="matrix(0.9247 -0.3807 0.3807 0.9247 -6.5638 9.7362)" class="st0" width="2.1" height="4.4"/>
	<rect x="15.2" y="19.7" transform="matrix(0.9606 -0.278 0.278 0.9606 -5.6254 5.415)" class="st0" width="2.1" height="5.7"/>
	
		<rect x="10" y="19.8" transform="matrix(0.9983 -5.835022e-02 5.835022e-02 0.9983 -1.3401 0.6844)" class="st0" width="2.1" height="6.9"/>
	<rect x="0.9" y="22.6" transform="matrix(0.345 -0.9386 0.9386 0.345 -18.9477 20.0318)" class="st0" width="8" height="2.1"/>
</g>
</svg>
