<?xml version="1.0" encoding="utf-8"?>
<!-- Generator: Adobe Illustrator 25.0.0, SVG Export Plug-In . SVG Version: 6.00 Build 0)  -->
<svg version="1.1" id="Layer_1" xmlns="http://www.w3.org/2000/svg" xmlns:xlink="http://www.w3.org/1999/xlink" x="0px" y="0px"
	 viewBox="0 0 30 30" style="enable-background:new 0 0 30 30;" xml:space="preserve">
<style type="text/css">
	.st0{fill:#FFFFFF;}
</style>
<g>
	<path class="st0" d="M7.4,5.8h5V3.7H2.2v2.1h3.1c0,1.9-0.3,6.5-3.9,12.2l1.8,1.1c0.5-0.8,1-1.6,1.4-2.4v11.6h2.1v-1.7h3.2v0.9h2.1
		v-15H6.2C7.2,9.5,7.4,7.1,7.4,5.8z M9.8,14.6v9.9H6.6v-9.9H9.8z"/>
	<path class="st0" d="M28.7,22.3l-2.1,0.1c0,0,0.1,2.2-1,3.3c-0.4,0.4-0.9,0.6-1.7,0.6l-6,0c-0.3,0-2-0.2-2-2.5v-4.2h5.7v-8.6h-7.5
		c0.6-0.9,1.4-2.2,2.1-3.7H25l0,10.2c0,0,0.1,0.8-0.5,1.4c-0.5,0.6-1.5,0.9-2.8,0.9v2.1c2,0,3.4-0.5,4.4-1.6c1.1-1.2,1.1-2.6,1-2.9
		V5.2h-9.6c0.4-1,0.8-2.1,1-3.1l-2-0.5c-1,4.2-4.6,9.3-4.7,9.4l1.7,1.2c0,0,0.2-0.3,0.5-0.8v12.3c0,3.6,2.6,4.6,4,4.6h6
		c1.3,0,2.4-0.4,3.2-1.3C28.8,25.3,28.7,22.4,28.7,22.3z M16.1,13h3.7v4.5h-3.7V13z"/>
</g>
</svg>
