<?xml version="1.0" encoding="utf-8"?>
<!-- Generator: Adobe Illustrator 25.0.0, SVG Export Plug-In . SVG Version: 6.00 Build 0)  -->
<svg version="1.1" id="Layer_1" xmlns="http://www.w3.org/2000/svg" xmlns:xlink="http://www.w3.org/1999/xlink" x="0px" y="0px"
	 viewBox="0 0 30 30" style="enable-background:new 0 0 30 30;" xml:space="preserve">
<style type="text/css">
	.st0{fill:#FFFFFF;}
</style>
<g>
	<path class="st0" d="M8.9,9.4H4.8v-8H2.5v10.3h6.4v4H0.7V18h2.8c-0.1,1.8-0.6,5.8-3,10.3l2,1c2.6-5,3.1-9.4,3.2-11.4h3.1v11.7h2.3
		V0H8.9V9.4z"/>
	<path class="st0" d="M29.5,18.4v-2.3h-3v-4h-2.3v4H13v2.3h11.2v7.3l0,0.2c0,0.2,0.1,0.9-0.2,1.3c-0.2,0.3-0.6,0.4-1.3,0.4h-3.6V30
		h3.6c1.7,0,2.6-0.7,3-1.3c0.9-1.1,0.8-2.6,0.7-3.1v-7.2H29.5z"/>
	
		<rect x="15.8" y="19.6" transform="matrix(0.7405 -0.6721 0.6721 0.7405 -10.9898 17.3363)" class="st0" width="2.3" height="6.5"/>
	<path class="st0" d="M13.7,10c0,0,0.5-0.3,1.1-1L18,12c-2.5,1.1-4.6,1.3-4.7,1.3l0.2,2.3c0.5-0.1,11.8-1.4,14.6-11.5l0.4-1.4h-8.6
		c0.2-0.4,0.4-0.7,0.6-1.1l-2-1.1c-2.9,5.3-6.2,7.8-6.3,7.8L13,9.1L13.7,10z M16.4,7.4c0.4-0.4,0.7-0.8,1.1-1.3l4.2,3.7
		c-0.5,0.4-0.9,0.7-1.5,1L16.4,7.4z M23.4,8.2l-3.8-3.4h5.9C25,6.1,24.3,7.2,23.4,8.2z"/>
</g>
</svg>
