<?xml version="1.0" encoding="utf-8"?>
<!-- Generator: Adobe Illustrator 25.0.0, SVG Export Plug-In . SVG Version: 6.00 Build 0)  -->
<svg version="1.1" id="Layer_1" xmlns="http://www.w3.org/2000/svg" xmlns:xlink="http://www.w3.org/1999/xlink" x="0px" y="0px"
	 viewBox="0 0 30 30" style="enable-background:new 0 0 30 30;" xml:space="preserve">
<style type="text/css">
	.st0{fill:#FFFFFF;}
</style>
<path class="st0" d="M22.1,18.7c1.3-0.5,2.6-1.1,3.9-2L24.8,15c-2.7,1.9-5.7,2.6-7,2.8c-0.8-1.4-1.9-2.7-2.9-3.6h11V7.2h-6.7
	l2.6-3.9h-9.2c0.2-0.2,0.3-0.4,0.5-0.6l-1.7-1.2C9.1,4.8,2.1,7.6,2.1,7.6l0.8,1.9c0.1,0,1-0.4,2.2-1v5.5h6c-4.3,2.3-7.8,2.5-7.8,2.5
	l0,1l0,1c0.2,0,4.6-0.2,9.8-3.4c0.4,0.3,0.8,0.7,1.1,1.1C10,20,3.1,21.1,3.1,21.1l0.3,2.1c0.3-0.1,7.4-1.3,12.2-5.1
	c0.3,0.5,0.6,1,0.8,1.5C11.9,23.3,3.1,25.4,3,25.5l0.5,2c0.4-0.1,8.4-2,13.4-5.6c0,0.4,0,0.8,0,1.2c0,3.1,0,3.4-4.5,3.5l0,2.1
	c6-0.1,6.5-1.6,6.5-5.6c0-0.4,0-0.9,0-1.4c0-0.7-0.1-1.3-0.3-1.9c0.4-0.1,0.9-0.2,1.5-0.3c0.9,1.7,3.4,5.7,6.8,7.6l1-1.8
	C25.2,23.6,23.1,20.4,22.1,18.7z M23.9,12h-8.4l2.4-2.8h6V12z M10.5,5.3H18l-1.2,1.9H7.6C8.6,6.6,9.6,6,10.5,5.3z M7.1,9.3h8
	L12.8,12H7.1V9.3z"/>
</svg>
