<?xml version="1.0" encoding="utf-8"?>
<!-- Generator: Adobe Illustrator 25.0.1, SVG Export Plug-In . SVG Version: 6.00 Build 0)  -->
<svg version="1.1" id="Layer_1" xmlns="http://www.w3.org/2000/svg" xmlns:xlink="http://www.w3.org/1999/xlink" x="0px" y="0px"
	 viewBox="0 0 25.4 30.6" style="enable-background:new 0 0 25.4 30.6;" xml:space="preserve">
<style type="text/css">
	.st0{fill:#FFFFFF;}
</style>
<path class="st0" d="M25.2,29.7c-0.6-3.4-2.6-6.4-5.4-8.3c1.4-1.7,2.1-3.7,2.1-5.9c0-1.4-0.3-2.8-0.9-4l4-9.2l-8.7,2.1L12.7,0
	L9.1,4.4L0.4,2.3l4,9.2c-0.6,1.2-0.9,2.6-0.9,4c0,2.2,0.8,4.3,2.1,5.9c-2.9,1.9-4.8,4.9-5.4,8.3L0,30.6h25.4L25.2,29.7z M3,4.4
	L9.7,6l3-3.7l3,3.7l6.7-1.6L20,9.9c-1.7-2.2-4.4-3.7-7.4-3.7S6.9,7.6,5.2,9.9L3,4.4z M18.9,10.9H6.5c1.4-1.9,3.7-3.1,6.2-3.1
	S17.5,9,18.9,10.9z M1.8,29.1c0.8-2.9,2.7-5.4,5.3-6.9L8,21.8l-0.7-0.7C5.8,19.6,5,17.7,5,15.6c0-1.1,0.2-2.2,0.7-3.2h14.1
	c0.4,1,0.7,2,0.7,3.2c0,2.1-0.8,4.1-2.3,5.5l-0.7,0.7l0.9,0.5c2.6,1.5,4.5,4,5.3,6.9L1.8,29.1L1.8,29.1z"/>
</svg>
