<?xml version="1.0" encoding="utf-8"?>
<!-- Generator: Adobe Illustrator 22.0.0, SVG Export Plug-In . SVG Version: 6.00 Build 0)  -->
<svg version="1.1" id="Layer_1" xmlns="http://www.w3.org/2000/svg" xmlns:xlink="http://www.w3.org/1999/xlink" x="0px" y="0px"
	 viewBox="0 0 25.4 30.2" style="enable-background:new 0 0 25.4 30.2;" xml:space="preserve">
<style type="text/css">
	.st0{fill:#FFFFFF;}
</style>
<path class="st0" d="M22.9,22.5v-1.8l-3-3.4V9.6l3.4-2.3V0H18v3.2h-2.9V0h-4.9v3.2H7.4V0H2.1v7.3l3.4,2.3v7.7l-3,3.4v1.8L0,25.3v4.9
	h25.4v-4.9L22.9,22.5z M23.9,26.7v1.9H1.5v-1.9H23.9z M11.8,4.7V1.5h1.9v3.2h5.9V1.5h2.2v4.7H3.7V1.5h2.2v3.2H11.8z M18.6,18.1
	l2.1,2.4h-16l2.1-2.4H18.6z M18.4,10.1v6.5H7v-6.5H18.4z M19.9,7.8l-1.3,0.8H6.8L5.5,7.8H19.9z M4,23.1v-1h17.4v1l2,2.2H2L4,23.1z"
	/>
</svg>
