<?xml version="1.0" encoding="utf-8"?>
<!-- Generator: Adobe Illustrator 24.3.0, SVG Export Plug-In . SVG Version: 6.00 Build 0)  -->
<svg version="1.1" id="Layer_1" xmlns="http://www.w3.org/2000/svg" xmlns:xlink="http://www.w3.org/1999/xlink" x="0px" y="0px"
	 viewBox="0 0 1000 900" style="enable-background:new 0 0 1000 900;" xml:space="preserve">
<style type="text/css">
	.st0{fill:#FFFFFF;stroke:#FFFFFF;stroke-width:8;stroke-miterlimit:10;}
</style>
<path class="st0" d="M460.86,94.08c-27.32,6.01-53.72,15.61-78.53,28.54c-4.73,2.63-9.73,4.75-14.91,6.33
	c-1.29,0-10.41-1.72-20.17-3.86c-65.23-13.95-109.32-14.59-136.25-1.82c-27.36,13.09-71.66,90.01-155.88,270.67
	C35.73,432.04,18.6,471.27,3.85,511.4c0.73,4.94,3.06,9.5,6.65,12.98c9.96,6.73,20.93,11.8,32.51,15.02
	c20.28,7.94,22.53,9.01,22.21,11.16c-0.11,1.29-4.08,12.02-8.69,23.92c-15.96,39.1-28.59,79.47-37.76,120.69
	c-3.03,20.35-3.71,40.97-2.04,61.47c2.03,19.92,15.04,37.02,33.69,44.31c12.34,3.22,34.65,3.75,334.82,7.08
	c115.43,1.29,169.29,1.29,174.87,0c8.48-1.93,11.69-8.47,15.02-30.04c2.57-24.41,3.15-48.99,1.72-73.49
	c-2.25-29.09-9.59-57.55-21.67-84.11c-2.07-3.78-3.63-7.82-4.61-12.02c0.87-0.72,1.99-1.07,3.11-0.97c2.25,0,37.23-5.69,43.02-6.97
	c1.82-0.43,4.29,2.15,13.52,13.73c19.66,26.22,43.3,49.2,70.05,68.12c10.48,6.19,21.64,11.16,33.26,14.8
	c7.78,2.54,15.97,3.56,24.14,3c13.24,0.95,26.47-1.95,38.08-8.37c33.04-16.2,60.51-51.92,85.18-110.61
	c11.16-26.5,11.59-27.14,16.09-28.43c2.15-0.64,25.85-4.19,52.67-7.94c26.93-3.75,49.99-7.3,51.28-8.05
	c4.46-3.43,7.75-8.15,9.44-13.52c0.64-5.87-1.28-11.73-5.26-16.09c-4.19-4.19-11.59-5.69-59.22-12.44
	c-17.7-2.47-32.61-4.93-33.15-5.36c0.71-7.12,2.07-14.16,4.08-21.03c10.94-45.06,26.18-122.41,28.11-142.9
	c0.8-4.1,0.28-8.35-1.5-12.12c-1.96-5.39-6.93-9.1-12.66-9.44c-2.9-0.54-22.53-1.61-43.56-2.25l-38.3-1.29l-3.75,2.79
	c-2.3,1.86-4.29,4.07-5.9,6.54c-5.08,15.22-9.24,30.73-12.44,46.45c-5.58,23.49-13.62,56.97-17.7,74.35
	c-10.41,43.88-8.9,39.69-13.73,39.05c-9.65-1.39-29.61-4.83-30.04-5.15c-0.54-0.54-1.82-6.76-10.41-47.85
	c-11.65-68.36-32.21-134.91-61.15-197.93c-32.61-66.51-71.34-104.92-122.41-121.66c-17.11-5.04-35.01-6.86-52.78-5.36
	C485.98,90.72,473.28,91.59,460.86,94.08z M523.19,128.95c17.38,3.25,33.93,9.92,48.71,19.63c14.99,12.23,28.68,25.96,40.87,40.98
	c36.62,56.53,61.91,119.63,74.45,185.81c7.08,29.39,18.88,87,18.02,87.86c-5.54-0.14-11.06-0.67-16.52-1.61
	c-8.8-1.18-40.55-5.58-70.7-9.65c-89.58-12.34-82.39-11.69-90.87-7.4c-7.83,3.86-9.01,10.3-7.3,42.8
	c1.82,36.15,4.18,75.2,4.93,79.49l0.64,4.08h-9.01c-10.4,0.41-20.4-3.98-27.14-11.91c-28.95-32.08-52.69-68.5-70.38-107.92
	c-16.31-31.75-18.34-35.19-22.64-36.69c-7.52-2.57-15.85-0.89-21.78,4.4c-2.42,3.85-4.23,8.04-5.36,12.44
	c-7.14,27.34-18.35,53.45-33.26,77.45c-10.37,17.26-25.19,31.41-42.91,40.98l-10.62,5.47l-23.71-0.64
	c-26.49-0.08-52.84-3.8-78.31-11.05c-27.46-6.87-65.76-18.56-85.82-26.18c-5.9-2.25-13.62-4.93-17.16-5.9
	c-3.54-1.07-11.37-3.75-17.38-6.12l-10.94-4.19l2.15-5.58c12.34-31.22,60.18-133.35,94.41-201.36
	c43.02-85.72,67.48-126.27,81.75-135.92c6.87-4.61,13.09-5.69,32.18-5.69c30.46,0.03,60.79,4.03,90.22,11.91l22.96,5.36l20.28-10.08
	c25.38-13.61,52.48-23.75,80.57-30.15C490.02,127.77,506.65,127.55,523.19,128.95z M884.62,339.86c0,5.79-17.59,91.83-25.32,124.02
	c-4.72,19.53-5.04,20.17-7.62,20.17c-11.2-0.92-22.29-2.82-33.15-5.69c3.44-23.41,8.31-46.59,14.59-69.41
	c15.02-64.9,15.88-68.12,18.34-68.77C862.49,339.18,873.58,339.07,884.62,339.86z M648.6,494.24
	c149.87,20.7,184.31,25.75,178.41,26.18c-0.75,0.11-26.61,3.76-57.4,8.15c-122.51,17.49-205.33,28.21-206.84,26.71
	c-0.86-0.97-5.36-57.29-5.36-68.02v-5.69l4.61,0.64C564.49,482.55,603.44,488.02,648.6,494.24z M403.04,502.5
	c37.01,64.9,64.9,96.02,93.33,104.28c7.19,2.15,9.87,4.72,16.84,16.41c11.98,20.49,20.12,42.99,24.03,66.41
	c2.49,15.03,3.32,30.28,2.47,45.49c0.65,11.35,0.18,22.74-1.39,34.01l-1.39,2.47H499.7c-42.8,0-277.96-2.68-372.37-4.29
	c-70.91-1.18-66.84-0.64-70.8-8.8c-11.69-24.25,2.15-87.76,39.37-180.02c5.15-12.87,6.65-15.66,8.58-15.88
	c8.35,1.48,16.6,3.52,24.67,6.11c42.32,14.26,86.47,22.38,131.1,24.14c9.97,0.56,19.96-0.23,29.72-2.36
	c21.3-4.69,40.48-16.22,54.61-32.83c14.87-14.55,27.04-31.62,35.94-50.42c3.52-7.66,7.61-15.05,12.23-22.1
	C392.95,485.12,397.57,492.95,403.04,502.5L403.04,502.5z M828.3,561.4c-0.43,1.29-3.11,7.72-6.11,14.27
	c-11.5,33.07-33.21,61.62-62.01,81.53c-7.68,4.76-16.85,6.52-25.75,4.94c-19.98-2.71-38.5-11.95-52.67-26.28
	c-16.51-14.96-31.53-31.49-44.84-49.35c1.72-1.61,158.13-24.03,190.64-27.25C828.51,559.14,828.73,559.9,828.3,561.4L828.3,561.4z"
	/>
<path class="st0" d="M599.58,243.75c-6.79,2.27-12.81,6.4-17.38,11.91c-6.93,7.08-10.08,17.04-8.48,26.82
	c0.14,9.4,3.3,18.5,9.01,25.96c5.41,5.86,12.62,9.75,20.49,11.05c16.6,3.84,33.46-5.32,39.26-21.35c2.74-5.13,3.93-10.94,3.43-16.74
	c0.6-5.83-0.59-11.71-3.43-16.84c-5.37-12.71-17.55-21.21-31.33-21.89C607.27,242.43,603.36,242.79,599.58,243.75z"/>
</svg>
