<?xml version="1.0" encoding="utf-8"?>
<!-- Generator: Adobe Illustrator 22.0.0, SVG Export Plug-In . SVG Version: 6.00 Build 0)  -->
<svg version="1.1" id="Layer_1" xmlns="http://www.w3.org/2000/svg" xmlns:xlink="http://www.w3.org/1999/xlink" x="0px" y="0px"
	 viewBox="0 0 31.7 31.6" style="enable-background:new 0 0 31.7 31.6;" xml:space="preserve">
<style type="text/css">
	.st0{fill:#FFFFFF;}
</style>
<g>
	<polygon class="st0" points="13.1,20.9 15.9,22.9 18.6,20.9 15.9,19.2 	"/>
	<path class="st0" d="M29.9,8.8c-1.2-1.1-2.7-1.6-4.6-1.6c-2.2,0-4.1,0.7-5.4,2c-0.5-0.8-1.1-1.4-1.7-1.8h1.5V0H12v7.4h1.5
		c-0.7,0.4-1.2,1.1-1.7,1.8c-1.4-1.3-3.2-2-5.4-2C4.5,7.2,3,7.8,1.8,8.8C0.6,9.9,0,11.3,0,13c0,3.2,1.8,5.8,5.5,7.8v7.1
		c0,1.1,1.1,2,3.4,2.7c2.2,0.7,4.5,1,7,1c2.4,0,4.8-0.3,7-1c2.3-0.7,3.4-1.6,3.4-2.7v-7.1c3.6-2,5.5-4.6,5.5-7.8
		C31.7,11.3,31.1,9.9,29.9,8.8z M14.7,17.2c-3.4,0.2-6.2,1-8.1,2.4c-1.5-0.8-2.8-1.8-3.7-2.9C2,15.5,1.5,14.3,1.5,13
		c0-1.3,0.4-2.3,1.3-3.1c0.9-0.8,2.1-1.2,3.5-1.2C10.2,8.8,13,11.6,14.7,17.2z M17,3.7l1.2-1.2v2.4L17,3.7z M16.9,5.9h-2.1l1-1
		L16.9,5.9z M14.8,1.5h2.1l-1,1L14.8,1.5z M14.8,3.7l-1.2,1.2V2.5L14.8,3.7z M9.7,25.9c1.9-0.6,4-0.9,6.1-0.9c2.2,0,4.2,0.3,6.1,0.9
		c2.5,0.8,2.7,1.4,2.7,1.6c0,0.3-0.4,0.9-3,1.7c-2.1,0.6-4.1,0.9-5.9,0.9c-1.8,0-3.8-0.3-5.9-0.9c-2.6-0.7-3-1.3-3-1.7
		C7,27.3,7.3,26.7,9.7,25.9z M14.2,8.8c1.1-0.9,2.2-0.9,3.4,0c0.5,0.4,0.9,1,1.2,1.6c-0.5,0.5-1.1,1.4-1.7,2.6
		c-0.5,1-0.9,1.9-1.2,2.7c-0.3-0.9-0.7-1.8-1.2-2.7c-0.6-1.2-1.2-2-1.7-2.6C13.2,9.7,13.6,9.2,14.2,8.8z M7,25.3v-0.3l1.5-2.4
		L7,21.6v-0.3c0.6-0.7,1.7-1.4,3.3-1.8c1.7-0.5,3.5-0.7,5.6-0.7c2,0,3.9,0.2,5.6,0.7c1.6,0.5,2.7,1.1,3.3,1.8v0.3l-1.5,0.9l1.5,2.4
		v0.3c-2.5-1.3-5.4-1.9-8.9-1.9C12.4,23.4,9.5,24,7,25.3z M30.1,13c0,1.3-0.4,2.5-1.3,3.7c-0.9,1.1-2.1,2.1-3.6,2.9
		c-2-1.4-4.7-2.2-8.1-2.4c1.7-5.6,4.5-8.5,8.3-8.5c1.4,0,2.6,0.4,3.5,1.2C29.7,10.7,30.1,11.7,30.1,13z"/>
</g>
</svg>
