<?xml version="1.0" encoding="utf-8"?>
<!-- Generator: Adobe Illustrator 22.0.0, SVG Export Plug-In . SVG Version: 6.00 Build 0)  -->
<svg version="1.1" id="Layer_1" xmlns="http://www.w3.org/2000/svg" xmlns:xlink="http://www.w3.org/1999/xlink" x="0px" y="0px"
	 viewBox="0 0 39.7 29.6" style="enable-background:new 0 0 39.7 29.6;" xml:space="preserve">
<style type="text/css">
	.st0{fill:#FFFFFF;}
</style>
<g>
	<path class="st0" d="M39.5,6.7L37,1.4c-0.1-0.2-0.1-0.3-0.2-0.4c-0.1-0.1-0.2-0.2-0.3-0.4l-0.1-0.1c-0.6-0.5-1.5-0.6-2.2-0.3
		L7.7,10.5c-0.2,0.1-0.5,0.2-0.7,0.3l-0.1,0c-0.2,0.1-0.4,0.2-0.6,0.4l-0.1,0.1c-1.1,0.7-1.9,1.8-2.4,3l-0.2,0.4
		c-0.1,0.2-0.1,0.3-0.1,0.5l-1,0.5l0,0l-0.1,0c-0.1,0.1-0.2,0.1-0.4,0.2C2,15.9,1.8,16,1.8,16.1l-0.1,0c-0.6,0.5-1.1,1.1-1.4,1.9
		l-0.1,0.2c-0.1,0.2-0.1,0.3-0.1,0.5C0.1,18.8,0,19,0,19.1c-0.1,0.8,0,1.5,0.4,2.2c0.1,0.3,0.3,0.5,0.5,0.8c0.2,0.2,0.4,0.5,0.6,0.7
		c0.2,0.2,0.5,0.4,0.7,0.5c0.6,0.4,1.4,0.6,2.1,0.6c0.3,0,0.5,0,0.8-0.1l0.4-0.1c0.2-0.1,0.4-0.1,0.6-0.2L7.1,23
		c0.1,0.1,0.2,0.1,0.3,0.2l0.2,0.1c0.2,0.1,0.5,0.2,0.7,0.2l0.2,0c0.2,0.1,0.5,0.1,0.7,0.1c0.3,0,0.6,0.1,0.9,0.1h0l0.1,0l0,0
		c1.2,2.3,3.2,4.1,5.6,5.1c1.3,0.5,2.6,0.8,4,0.8c1.3,0,2.6-0.2,3.9-0.7c0.1,0,0.1,0,0.2-0.1l0.2-0.1c0.2-0.1,0.4-0.2,0.6-0.3
		l0.1-0.1c0.5-0.3,1-0.6,1.5-0.9c0.5-0.3,0.9-0.7,1.3-1.1c1.9-2,3-4.6,3-7.4c0-0.3,0-0.6,0-0.8c0-0.3,0-0.5-0.1-0.8
		c0-0.2-0.1-0.4-0.1-0.6l0-0.2c-0.2-0.7-0.4-1.5-0.7-2.2l8.8-4.7c0.2-0.1,0.3-0.2,0.5-0.3C39,9.2,39.1,9.1,39.2,9l0.1-0.1
		C39.8,8.2,39.8,7.4,39.5,6.7z M37.5,7.5l-0.1,0.3l-10.7,5.7l0.6,1c0.5,0.8,0.8,1.6,1,2.5c0,0.2,0.1,0.4,0.1,0.6
		c0,0.2,0.1,0.4,0.1,0.6c0,0.2,0,0.5,0,0.7c0,2.2-0.9,4.4-2.4,6c-0.3,0.3-0.7,0.6-1,0.9c-0.4,0.3-0.8,0.5-1.2,0.7l-0.1,0
		c-0.2,0.1-0.4,0.2-0.6,0.3c-0.1,0-0.2,0.1-0.3,0.1c-2,0.8-4.3,0.8-6.3,0l-0.2-0.1c-2.1-0.9-3.7-2.5-4.6-4.5l-0.3-0.7l-1.5,0
		c-0.2,0-0.4,0-0.6,0c-0.2,0-0.4-0.1-0.6-0.1c-0.1,0-0.2-0.1-0.3-0.1l-0.3-0.1c-0.2-0.1-0.4-0.2-0.6-0.3l-0.5-0.3l-2.1,0.9l-0.4,0.1
		c-0.1,0-0.3,0-0.4,0c-0.4,0-0.8-0.1-1.1-0.3c-0.1-0.1-0.3-0.2-0.4-0.3c-0.1-0.1-0.2-0.2-0.3-0.3c-0.1-0.1-0.2-0.2-0.2-0.4
		c-0.2-0.4-0.2-0.8-0.2-1.2c0-0.1,0-0.2,0-0.2c0-0.1,0-0.2,0.1-0.2l0-0.1c0.2-0.4,0.4-0.7,0.7-1l0.1-0.1c0,0,0.1-0.1,0.1-0.1
		c0.1,0,0.1-0.1,0.2-0.1l2-0.9L5.5,16c0-0.2,0.1-0.4,0.1-0.6l0.1-0.3c0.3-0.8,0.9-1.5,1.6-2L7.5,13c0.1-0.1,0.3-0.2,0.5-0.3
		c0.1-0.1,0.2-0.1,0.3-0.2L34.9,2.1c0,0,0.1,0,0.1,0L37.5,7.5z"/>
	<path class="st0" d="M21.5,22.1c-0.2,0.1-0.3,0.2-0.5,0.2l-0.3,0.1v3l0.6-0.1c0.8-0.2,1.6-0.5,2.2-0.9l0.5-0.3l-2.2-2.2L21.5,22.1z
		"/>
	<path class="st0" d="M23.3,19.9L23.3,19.9c-0.1,0.2-0.1,0.4-0.2,0.5l-0.2,0.3l2.2,2.2l0.3-0.5c0.4-0.7,0.8-1.5,0.9-2.2l0.1-0.6h-3
		L23.3,19.9z"/>
	<path class="st0" d="M21.5,15.6l0.3,0.2l2.1-2.1l-0.5-0.3c-0.7-0.4-1.4-0.7-2.2-0.9l-0.6-0.1v2.9l0.3,0.1
		C21.1,15.4,21.3,15.5,21.5,15.6z"/>
	<path class="st0" d="M26,16.3c-0.2-0.4-0.4-0.8-0.6-1.1l-0.3-0.5l-2.1,2.1l0.2,0.3c0.1,0.2,0.2,0.3,0.2,0.5l0.1,0.3h3l-0.1-0.6
		C26.3,17,26.2,16.7,26,16.3z"/>
	<path class="st0" d="M16.4,17.7L16.4,17.7c0.1-0.2,0.1-0.3,0.2-0.5l0.2-0.3l-2.1-2.1l-0.3,0.5c-0.2,0.3-0.4,0.6-0.5,1
		c-0.2,0.4-0.3,0.8-0.4,1.2L13.2,18h3L16.4,17.7z"/>
	<path class="st0" d="M16.6,20.4c-0.1-0.2-0.2-0.3-0.2-0.5l-0.1-0.3h-3.1l0.1,0.6c0.2,0.8,0.5,1.6,0.9,2.2l0.3,0.5l2.2-2.2
		L16.6,20.4z"/>
	<path class="st0" d="M18.2,22.1l-0.3-0.2l-2.2,2.2l0.5,0.3c0.7,0.4,1.4,0.8,2.2,0.9l0.6,0.1v-3l-0.3-0.1
		C18.6,22.2,18.4,22.1,18.2,22.1z"/>
	<path class="st0" d="M16.3,13.3l-0.5,0.3l2.1,2.1l0.3-0.1c0.2-0.1,0.3-0.1,0.5-0.2l0.3-0.1v-2.9l-0.6,0.1
		C17.7,12.6,17,12.9,16.3,13.3z"/>
</g>
</svg>
