<?xml version="1.0" encoding="utf-8"?>
<!-- Generator: Adobe Illustrator 22.0.0, SVG Export Plug-In . SVG Version: 6.00 Build 0)  -->
<svg version="1.1" id="Layer_1" xmlns="http://www.w3.org/2000/svg" xmlns:xlink="http://www.w3.org/1999/xlink" x="0px" y="0px"
	 viewBox="0 0 34.5 34.5" style="enable-background:new 0 0 34.5 34.5;" xml:space="preserve">
<style type="text/css">
	.st0{fill:#FFFFFF;}
</style>
<g>
	<path class="st0" d="M29.5,5.1C26.1,1.7,22,0,17.3,0C12.5,0,8.4,1.7,5.1,5.1C1.7,8.4,0,12.5,0,17.3c0,4.7,1.7,8.9,5.1,12.2
		c3.4,3.4,7.5,5.1,12.2,5.1c4.7,0,8.8-1.7,12.2-5.1c3.4-3.4,5.1-7.5,5.1-12.2C34.5,12.5,32.8,8.4,29.5,5.1z M32.5,17.3
		C32.5,21.4,31,25,28,28c-3,3-6.6,4.5-10.7,4.5c-4.2,0-7.8-1.5-10.7-4.5c-3-3-4.5-6.6-4.5-10.7c0-4.3,1.5-7.8,4.5-10.8
		c2.9-3,6.5-4.5,10.7-4.5c4.2,0,7.8,1.5,10.7,4.5C31,9.5,32.5,13.1,32.5,17.3z"/>
	<path class="st0" d="M19.1,20.9c2.4-2.6,4.1-5.8,5.2-9.5H28V9.2h-9.6V5.3h-2.1v3.9H6.6v2.1h3.7c1.1,3.7,3,6.9,5.7,9.6
		c-2.4,2-5.4,3.6-8.9,4.6l-0.8,0.2l1.1,1.8l0.5-0.1c3.8-1.1,7-2.8,9.6-5.1c2.4,2,5.3,3.7,9,5.1l0.5,0.2l1.2-1.8l-0.8-0.3
		C24.2,24.4,21.4,22.8,19.1,20.9z M22.2,11.3c-1,3.2-2.5,5.9-4.6,8.2c-2.3-2.3-4.1-5-5.1-8.2H22.2z"/>
</g>
</svg>
