<?xml version="1.0" encoding="utf-8"?>
<!-- Generator: Adobe Illustrator 22.0.0, SVG Export Plug-In . SVG Version: 6.00 Build 0)  -->
<svg version="1.1" id="Layer_1" xmlns="http://www.w3.org/2000/svg" xmlns:xlink="http://www.w3.org/1999/xlink" x="0px" y="0px"
	 viewBox="0 0 22.6 30.1" style="enable-background:new 0 0 22.6 30.1;" xml:space="preserve">
<style type="text/css">
	.st0{fill:#FFFFFF;}
</style>
<path class="st0" d="M17.7,22.6c-2.5-3.8-3.8-7.2-3.8-10v-0.5h4.3v-1.1c0-0.8-0.3-1.5-1-2.2c-0.6-0.6-1.4-1.1-2.3-1.5
	c0.6-0.9,1-1.8,1-2.9c0-1.2-0.4-2.3-1.3-3.2c-0.9-0.9-2-1.3-3.2-1.3C10.1,0,9,0.4,8.1,1.3C7.2,2.2,6.8,3.3,6.8,4.5c0,1,0.3,2,1,2.9
	C6.7,7.8,6,8.3,5.4,8.9c-0.7,0.7-1,1.4-1,2.2v1.1h4.3v0.5c0,2.8-1.3,6.1-3.8,10C1.6,23.3,0,25.3,0,28.5v1.5h22.6v-1.5
	C22.6,25.3,20.9,23.3,17.7,22.6z M9.7,8.1L10.1,8L9.8,7.6c-1-1-1.4-2-1.4-3.1c0-0.8,0.3-1.5,0.8-2c0.6-0.6,1.2-0.9,2-0.9
	c0.8,0,1.5,0.3,2,0.8c0.6,0.6,0.8,1.2,0.8,2c0,1.1-0.5,2.2-1.4,3.1L12.4,8l0.4,0.2c2,0.7,3.2,1.6,3.6,2.4H6.2
	C6.5,9.7,7.7,8.8,9.7,8.1z M5.8,23.9l0.1,0L6,23.7c2.7-4.1,4.2-8,4.2-11.6h2c0.1,3.6,1.5,7.5,4.3,11.6l0.1,0.1l0.1,0
	c1.5,0.3,2.6,0.8,3.3,1.6c0.6,0.7,0.9,1.7,1,3H1.6c0-1.4,0.4-2.4,1-3C3.2,24.7,4.3,24.2,5.8,23.9z"/>
</svg>
