<?xml version="1.0" encoding="utf-8"?>
<!-- Generator: Adobe Illustrator 22.0.0, SVG Export Plug-In . SVG Version: 6.00 Build 0)  -->
<svg version="1.1" id="Layer_1" xmlns="http://www.w3.org/2000/svg" xmlns:xlink="http://www.w3.org/1999/xlink" x="0px" y="0px"
	 viewBox="0 0 30.1 30.9" style="enable-background:new 0 0 30.1 30.9;" xml:space="preserve">
<style type="text/css">
	.st0{fill:#FFFFFF;}
</style>
<g>
	<path class="st0" d="M26.8,10.5c-2.2-3.5-5.7-5.4-10.9-6.1c-0.3-0.4-0.7-1.1-1.4-2.1c-0.7-1.1-1.5-1.8-2.4-2.2L11.9,0l0,0.3
		c-0.2,1.6-0.5,2.7-0.9,3.5l-0.6,0C9.3,2.1,8.2,1,7.1,0.5L6.7,0.4v2.6c0,0.9-0.1,1.7-0.2,2.2C6.4,5.6,6.1,6.3,5.6,7
		C5.2,7.6,4.9,8.1,4.8,8.5c-0.1,0.4-0.2,1-0.3,1.8c-0.1,0.7-0.3,1.4-0.5,1.9c-0.3,0.5-0.9,1.4-1.9,2.7C0.7,16.8,0,18.2,0,19.3
		c0,1.3,0.7,2.6,2,3.6c1.3,1.1,2.6,1.6,4,1.6c0.6,0,1.1-0.2,1.5-0.7c0.4-0.4,0.6-1,0.8-1.8c0.2-1.4,0.7-2.3,1.5-2.5
		c2.5-0.6,4.1-1.1,4.8-1.6c0.1,0.2,0.2,0.5,0.2,0.7c0,1.5-0.8,2.7-2.5,3.6c-1.4,0.8-2.4,1.9-3,3.1c-0.5,1.1-0.8,2.9-0.8,5.4v0.2
		h21.6v-5C29.8,18,28.9,13.8,26.8,10.5z M16.3,18.6l-0.1-2.2c0-0.5,0.1-1.2,0.3-1.8l0-0.1l-0.1-0.1c-0.1-0.1-0.2-0.2-0.3-0.3
		l-0.2-0.2l-0.1,0.3c-0.4,0.9-0.8,1.4-1,1.7c-0.2,0.3-0.6,0.5-1,0.8c-0.4,0.3-1.1,0.5-2,0.8c-0.9,0.3-1.8,0.5-2.7,0.7
		c-1.3,0.4-2.1,1.6-2.4,3.6C6.5,22.6,6.3,23,5.9,23c-0.3,0-0.6-0.1-0.8-0.2c0.2-0.4,0.4-0.7,0.7-1c0.4-0.5,0.5-0.9,0.5-1.3
		c0-0.6-0.3-0.9-0.8-0.9c-0.4,0-0.9,0.5-1.5,1.7C3.6,21.9,3.5,22,3.5,22c-0.2,0-0.5-0.1-1.2-0.8c-0.5-0.6-0.8-1.2-0.8-2
		c0-0.4,0.1-0.7,0.3-1.1c0.2-0.4,0.7-1.2,1.5-2.3c1.2-1.7,1.9-2.8,2.2-3.4c0.3-0.6,0.4-1.2,0.5-1.8C6,9.9,6.1,9.4,6.2,9.1
		c0.1-0.3,0.3-0.7,0.7-1.2c0.6-0.9,1-1.7,1.1-2.3c0.1-0.5,0.2-1.2,0.2-2.3C8.7,3.9,9,4.5,9.1,5C8.8,5.2,8.5,5.5,8.3,5.8L8.2,5.9
		l0.1,0.8l2.1-1c0,0.1,0,0.2,0,0.3c0,0.7,0.4,0.8,0.6,0.8c0.4,0,0.7-0.3,1-0.9c0.3-0.5,0.4-0.9,0.4-1.2c0-0.2,0.1-0.7,0.4-2.1
		c0.3,0.3,0.6,0.8,1.1,1.7c0.5,0.9,0.9,1.4,1.2,1.6l0.1,0l0.1,0c4.6,0.6,7.9,2.3,9.9,5.2c2,2.9,3,8.1,3,15.5v2.6H10
		c0-1.5,0.3-2.6,0.7-3.5c0.5-0.9,1.3-1.7,2.3-2.2C15.2,22.3,16.3,20.7,16.3,18.6z"/>
	<path class="st0" d="M2.5,18.3c-0.3,0.3-0.4,0.6-0.4,1.1c0,1,0.5,1.1,0.8,1.1c0.2,0,0.5-0.1,0.6-0.3c0.2-0.2,0.3-0.4,0.3-0.7v-0.1
		L3.4,19c0.2-0.2,0.4-0.5,0.4-0.7L4,17.9H3.6C3.2,17.9,2.8,18,2.5,18.3z"/>
	<path class="st0" d="M9.5,9.5c-0.5,0-1,0.2-1.7,0.7c-0.7,0.5-1,0.9-1,1.4c0,0.4,0.3,0.8,0.9,1.3l0.4,0.3v-1.2l0,0l0.7,0.1l0.1,0
		c0.5-0.3,0.8-0.5,0.8-0.8c0-0.1,0-0.2-0.1-0.6c0.2-0.2,0.5-0.3,0.9-0.4l0.3-0.1l-0.3-0.7H9.5z"/>
</g>
</svg>
