<?xml version="1.0" encoding="utf-8"?>
<!-- Generator: Adobe Illustrator 24.2.3, SVG Export Plug-In . SVG Version: 6.00 Build 0)  -->
<svg version="1.1" id="Layer_1" xmlns="http://www.w3.org/2000/svg" xmlns:xlink="http://www.w3.org/1999/xlink" x="0px" y="0px"
	 viewBox="0 0 30 30" style="enable-background:new 0 0 30 30;" xml:space="preserve">
<style type="text/css">
	.st0{fill:#FFFFFF;}
</style>
<g>
	<path class="st0" d="M20.7,18.3v-7.2h5.4V9H8.7V5.3c2.4-0.1,8.8-0.5,15.4-2l-0.5-2c-8.1,1.9-15.9,2-16,2l-1,0v15H1.8v2.1h26.5v-2.1
		H20.7z M8.7,11.1h9.9v7.2H8.7V11.1z"/>
	<path class="st0" d="M2.1,26.6l0.8,1.9c0.2-0.1,4.1-1.8,8.9-6l-1.4-1.6C5.9,24.9,2.1,26.5,2.1,26.6z"/>
	<path class="st0" d="M19.2,20.6l-1,1.8c0,0,4.7,2.6,7.5,6l1.6-1.3C24.3,23.4,19.4,20.7,19.2,20.6z"/>
</g>
</svg>
