<?xml version="1.0" encoding="utf-8"?>
<!-- Generator: Adobe Illustrator 24.2.3, SVG Export Plug-In . SVG Version: 6.00 Build 0)  -->
<svg version="1.1" id="Layer_1" xmlns="http://www.w3.org/2000/svg" xmlns:xlink="http://www.w3.org/1999/xlink" x="0px" y="0px"
	 viewBox="0 0 30 30" style="enable-background:new 0 0 30 30;" xml:space="preserve">
<style type="text/css">
	.st0{fill:#FFFFFF;}
</style>
<g>
	<path class="st0" d="M9.3,10.6V8.9h3.7V6.8H9.3V1.4H7.2v5.4H2.7v2.1h4.4v0.7c-1.7,4.2-5.3,10-5.3,10.1l1.8,1.1
		c0.1-0.2,1.9-3.1,3.5-6.3v14.2h2.1V13.4c1.6,1.6,2.5,3.5,2.5,3.5l1.9-0.9C13.6,15.9,12,12.6,9.3,10.6z"/>
	<path class="st0" d="M14.4,2.8v25.8h2.1v-2h9.7v2h2.1V2.8H14.4z M26.2,4.9v4.9h-9.7V4.9H26.2z M16.5,11.9h9.7v5.2h-9.7V11.9z
		 M16.5,24.5v-5.3h9.7v5.3H16.5z"/>
</g>
</svg>
