<?xml version="1.0" encoding="utf-8"?>
<!-- Generator: Adobe Illustrator 24.2.3, SVG Export Plug-In . SVG Version: 6.00 Build 0)  -->
<svg version="1.1" id="Layer_1" xmlns="http://www.w3.org/2000/svg" xmlns:xlink="http://www.w3.org/1999/xlink" x="0px" y="0px"
	 viewBox="0 0 30 30" style="enable-background:new 0 0 30 30;" xml:space="preserve">
<style type="text/css">
	.st0{fill:#FFFFFF;}
</style>
<g>
	<path class="st0" d="M10.5,1.7l-2-0.7c-2.9,8.7-7,12.4-7,12.4l1.4,1.6c0.1-0.1,1.3-1.1,2.8-3.3v16.9h2.1V8.3h0
		C8.7,6.5,9.7,4.3,10.5,1.7z"/>
	<path class="st0" d="M21.4,15.4V13h6.4v-2.1h-6.4V8.6h6.4V6.5h-6.4V4.1h6.4V2h-16v15.6h14l-0.3,6.2c0,0.3-0.4,2.5-2.4,2.5h-3.5v2.1
		h3.5c3.2,0,4.3-2.8,4.5-4.4l0.4-8.5H21.4z M19.3,10.9H14V8.6h5.4V10.9z M19.3,4.1v2.4H14V4.1H19.3z M14,13h5.4v2.4H14V13z"/>
	<rect x="22.4" y="18.3" transform="matrix(0.9387 -0.3446 0.3446 0.9387 -5.7126 9.3631)" class="st0" width="2.1" height="4.9"/>
	<path class="st0" d="M20.3,18.2l-2,0.6c0.8,2.7,0.8,5.9,0.8,5.9h2.1C21.1,24.5,21.1,21.2,20.3,18.2z"/>
	<path class="st0" d="M14.7,19c0.4,3.2,0.3,7.1,0.3,7.2l2.1,0.1c0-0.2,0.1-4.1-0.3-7.5L14.7,19z"/>
	<path class="st0" d="M9.5,26.6l2,0.7c0.1-0.2,1.4-3.7,2.3-8.3l-2.1-0.4C10.8,23,9.5,26.5,9.5,26.6z"/>
</g>
</svg>
