<?xml version="1.0" encoding="utf-8"?>
<!-- Generator: Adobe Illustrator 24.2.3, SVG Export Plug-In . SVG Version: 6.00 Build 0)  -->
<svg version="1.1" id="Layer_1" xmlns="http://www.w3.org/2000/svg" xmlns:xlink="http://www.w3.org/1999/xlink" x="0px" y="0px"
	 viewBox="0 0 30 30" style="enable-background:new 0 0 30 30;" xml:space="preserve">
<style type="text/css">
	.st0{fill:#FFFFFF;}
</style>
<g>
	<path class="st0" d="M9.8,1.7l-2-0.7c-2.9,8.7-7,12.4-7,12.4l1.4,1.6C2.2,15,3.4,13.9,5,11.7v16.9h2.1V8.3h0C8,6.5,9,4.3,9.8,1.7z"
		/>
	<polygon class="st0" points="28.5,11.9 28.5,9.8 19.7,9.8 19.7,1.4 17.6,1.4 17.6,9.8 9,9.8 9,11.9 17.6,11.9 17.6,25.4 9.8,25.4 
		9.8,27.5 27.8,27.5 27.8,25.4 19.7,25.4 19.7,11.9 	"/>
</g>
</svg>
