<svg xmlns="http://www.w3.org/2000/svg" viewBox="0 0 127.96 127.27"><defs><style>.cls-1{fill:#fff;}</style></defs><g id="Layer_2" data-name="Layer 2"><g id="Layer_1-2" data-name="Layer 1"><path class="cls-1" d="M32.28,0C18.91,40.12,0,57.18,0,57.18l3.23,3.69,3.23,3.69c.46-.47,6-5.08,12.91-15.22v77.93h9.22V33.66c4.61-8.3,8.76-18.44,12.91-30.43Z"/><path class="cls-1" d="M128,98.15H86.69V87.77h30.2V32.28H86.69V22.13h38V12.45h-38V1.84H77V12.45H39v9.68H77V32.28H46.8V87.77H77V98.15H35.74v10.23H77v18.89h9.68V108.38H128ZM107.05,77.93H86.69V64.13h20.36Zm0-36.43v13H86.69v-13Zm-50.4,0H77v13H56.65Zm0,36.43V64.13H77v13.8Z"/></g></g></svg>