<?xml version="1.0" encoding="utf-8"?>
<!-- Generator: Adobe Illustrator 24.2.3, SVG Export Plug-In . SVG Version: 6.00 Build 0)  -->
<svg version="1.1" id="Layer_1" xmlns="http://www.w3.org/2000/svg" xmlns:xlink="http://www.w3.org/1999/xlink" x="0px" y="0px"
	 viewBox="0 0 30 30" style="enable-background:new 0 0 30 30;" xml:space="preserve">
<style type="text/css">
	.st0{fill:#FFFFFF;}
</style>
<g>
	<path class="st0" d="M3.2,16c0.1-0.2,1.3-4.1,1.2-8.9L2.3,7.2c0.1,4.4-1.1,8.1-1.1,8.1L3.2,16z"/>
	<path class="st0" d="M7.4,18.1c0.3-2.3,0.5-4.7,0.6-6.9c0.9-0.7,3.4-2.8,4.3-4.7l-1.9-0.9C9.9,6.5,8.9,7.5,8,8.4
		c0-3.7-0.2-6.5-0.2-6.8L5.7,1.8c0.5,5.8,0.7,21.7-4.2,25.7l1.3,1.6c2.1-1.7,3.3-4.9,4.1-8.5c0.9,0.9,2.2,2.4,3.3,4l1.8-1.1
		C10.3,20.9,8.3,18.9,7.4,18.1z"/>
	<path class="st0" d="M26.8,22.1c-0.1,4.2-1.5,4.2-2,4.2h-7.4c-0.5,0-1.2-0.1-1.5-0.5c-0.3-0.4-0.2-0.9-0.2-0.9l0-5.4H22v2.1h1.4
		c1,0,1.8-0.3,2.4-1c1.2-1.3,1.2-3.3,1.1-3.5L27.4,5H16.6c0.3-1,0.6-2.1,0.7-3.2l-2.1-0.2c-0.7,5.9-5.1,10.3-5.1,10.4l1.5,1.5
		c0.1-0.1,0.9-1,2-2.4v13.6c0,0.4-0.1,1.5,0.7,2.5c0.7,0.8,1.7,1.2,3.2,1.2h7.4c2.6,0,4-2.1,4.1-6.2L26.8,22.1z M20,17.5h-4.3V13H20
		V17.5z M13.6,10.9c0.7-1,1.5-2.3,2.1-3.8h9.5l-0.3,10.1c0,0.4-0.1,1.5-0.6,2c-0.1,0.1-0.4,0.3-0.9,0.3h-1.4v-8.7H13.6z"/>
</g>
</svg>
