<svg xmlns="http://www.w3.org/2000/svg" viewBox="0 0 120.84 129.51"><defs><style>.cls-1{fill:#fff;}</style></defs><g id="Layer_2" data-name="Layer 2"><g id="Layer_1-2" data-name="Layer 1"><path class="cls-1" d="M9.82,58H44.89V15.9H23.38L27.59,3.27,18.23,0,13.09,15.9H0V126.71H9.82v-8.42H37.87v8.42h9.82V73.87H9.82Zm0-32.26H35.53V48.16H9.82Zm28.52,58v24.78H10.29V83.69Z"/><path class="cls-1" d="M120.82,91.64V25.72H92.91V1.87H83.09V25.72H55.17v86H65V35.53h18.1v94h9.82v-94H111V92.11a10.09,10.09,0,0,1-1.87,5.61c-1.87,1.87-4.68,2.81-8.89,2.81v9.81c7,0,12.63-1.87,15.9-6.07A18,18,0,0,0,120.82,91.64Z"/></g></g></svg>